<svg xmlns="http://www.w3.org/2000/svg" viewBox="0 0 500 500"><defs><style>.cls-1{fill:#f3921a;}</style></defs><title>Plan de travail 1</title><g id="Calque_3" data-name="Calque 3"><path class="cls-1" d="M482.63,412.09C462.44,438,457,435.33,453.87,434.86S451.64,421,451.64,421l5.28-27s6.81-25.71-5.16-25.24-10.45-2-10.45-2c-3.05-5.4-4.92-5.05-4.92-5.05-8.46-2.35-19.37,4.34-19.37,4.34-27.93,12.56-36.5,57.63-36.5,57.63l-18.31,9.15c.23-3.63.7-18.07.12-22.65s-2.59-10.8-3.76-14.43a17.63,17.63,0,0,1-.59-7.28s11.51-9.27,12.21-17.37-4.81-8.69-12.21-9.63-14.55,7.87-14.55,7.87l-31,39.9c-29.45,30.4-32.86,26.29-35.79,25.24s-1.76-11.5-1.76-11.5l.82-7.4s5.75-27.11,6.69-36.73-5.4-10.22-5.4-10.22-7.75.24-10.56-.35-2.82-2.46-2.82-2.46a7.08,7.08,0,0,0-7.35-4.94c-38,6-50.27,51.22-50.27,51.22L203.48,414c-66.61,54.36-95.21,35.82-95.21,35.82s-24.51-8.17-19.17-49,32.05-74.47,32.05-74.47,20.11-25.14,41.17-19.8S182.11,337,167,353.68s-29.85,9.74-29.85,9.74c-7.19-3.83-9.94,2.08-9.94,2.08s-.71,8.92-.71,10.79.36,1.88,1.53,5,10.45,5.4,17.72,4.93,17.61-1.06,37.56-21.36a57.6,57.6,0,0,0,16.2-45.54S194,284.63,166,284.75c-14.74.32-28.17.82-54.46,19.48s-40.84,58.45-40.84,58.45S52.36,410.1,65.5,438.85s31.22,32.86,40.61,35.8c10.21,3.17,45.54.35,65.85-11.27a146.91,146.91,0,0,0,32.62-25.12c1.76,9.39,9.39,19.13,24.65,19s28.52-15.14,28.52-15.14c5.87,15.25,17,15.76,17,15.76,15.37.85,28.87-16.12,28.87-16.12s2,15.26,27.58,16.08,52.12-13.73,52.12-13.73c.23,1.53,6.8,12.56,21.24,13.16s29.93-15.39,29.93-15.39c4.69,9,6.22,15.73,20.77,15.38S487.8,433,487.8,433Zm-233.43,11s-4.85,15.11-13.62,15.86-7.09-19.4-7.09-19.4c11.75-42,30.78-39.26,30.78-39.26Zm90.65,9.89c-2.05,6.53-5,7.83-5,7.83s-7.65,3.55-12.69,0a93.87,93.87,0,0,1-9.51-7.83l26.3-27.8S341.91,426.41,339.85,432.94Zm86-9.89s-4.85,15.11-13.62,15.86-7.08-19.4-7.08-19.4c11.75-42,30.77-39.26,30.77-39.26Z"/><path class="cls-1" d="M390.84,207.86l3.47-8.2L218.07,24.14,42.38,199.3c14.19,37,39.15,62.84,39.15,62.84C28.78,312.21,12.2,357.35,12.2,357.35,206.66,107.58,466.3,252.88,466.3,252.88,444.79,233,390.84,207.86,390.84,207.86ZM216.06,181.33H188.42V153.7h27.64Zm0-34.63H188.42V119.07h27.64Zm35.45,34.63H223.88V153.7h27.63Zm0-34.63H223.88V119.07h27.63Z"/></g></svg>